HIERARCHY
ROOT Hips
{
	OFFSET 0.000000 0.000000 0.000000
	CHANNELS 6 Xposition Yposition Zposition Zrotation Yrotation Xrotation
	JOINT Spine
	{
		OFFSET 0.000000 0.000000 -1.053067
		CHANNELS 6 Xposition Yposition Zposition Zrotation Yrotation Xrotation
		JOINT Spine1
		{
			OFFSET 0.000000 0.000001 -2.382877
			CHANNELS 6 Xposition Yposition Zposition Zrotation Yrotation Xrotation
			JOINT Neck
			{
				OFFSET 0.000000 0.000001 -2.639722
				CHANNELS 6 Xposition Yposition Zposition Zrotation Yrotation Xrotation
				JOINT Head
				{
					OFFSET 0.000000 0.256846 -1.990555
					CHANNELS 6 Xposition Yposition Zposition Zrotation Yrotation Xrotation
					End Site
					{
						OFFSET 0.000000 0.000001 -2.568457
					}
				}
			}
			JOINT LeftShoulder
			{
				OFFSET 0.512620 -0.056020 -2.153831
				CHANNELS 6 Xposition Yposition Zposition Zrotation Yrotation Xrotation
				JOINT LeftArm
				{
					OFFSET 1.485729 0.000000 0.000000
					CHANNELS 6 Xposition Yposition Zposition Zrotation Yrotation Xrotation
					JOINT LeftForeArm
					{
						OFFSET 3.852898 0.000000 0.000000
						CHANNELS 6 Xposition Yposition Zposition Zrotation Yrotation Xrotation
						JOINT LeftHand
						{
							OFFSET 3.445927 0.000000 0.000000
							CHANNELS 6 Xposition Yposition Zposition Zrotation Yrotation Xrotation
							End Site
							{
								OFFSET 1.926343 0.000000 0.000000
							}
						}
					}
				}
			}
			JOINT RightShoulder
			{
				OFFSET -0.513668 -0.056020 -2.153831
				CHANNELS 6 Xposition Yposition Zposition Zrotation Yrotation Xrotation
				JOINT RightArm
				{
					OFFSET -1.485729 0.000000 0.000000
					CHANNELS 6 Xposition Yposition Zposition Zrotation Yrotation Xrotation
					JOINT RightForeArm
					{
						OFFSET -3.852898 0.000000 0.000000
						CHANNELS 6 Xposition Yposition Zposition Zrotation Yrotation Xrotation
						JOINT RightHand
						{
							OFFSET -3.445927 0.000000 0.000000
							CHANNELS 6 Xposition Yposition Zposition Zrotation Yrotation Xrotation
							End Site
							{
								OFFSET -1.926343 0.000000 0.000000
							}
						}
					}
				}
			}
		}
	}
	JOINT LeftUpLeg
	{
		OFFSET 1.284228 0.000000 0.000000
		CHANNELS 6 Xposition Yposition Zposition Zrotation Yrotation Xrotation
		JOINT LeftLeg
		{
			OFFSET 0.000000 -0.000003 6.684024
			CHANNELS 6 Xposition Yposition Zposition Zrotation Yrotation Xrotation
			JOINT LeftFoot
			{
				OFFSET 0.000000 -0.000003 5.369456
				CHANNELS 6 Xposition Yposition Zposition Zrotation Yrotation Xrotation
				JOINT LeftToeBase
				{
					OFFSET 0.000000 1.926342 0.834749
					CHANNELS 6 Xposition Yposition Zposition Zrotation Yrotation Xrotation
					End Site
					{
						OFFSET 0.000000 0.513691 0.000000
					}
				}
			}
		}
	}
	JOINT RightUpLeg
	{
		OFFSET -1.284228 0.000000 0.000000
		CHANNELS 6 Xposition Yposition Zposition Zrotation Yrotation Xrotation
		JOINT RightLeg
		{
			OFFSET 0.000000 -0.000003 6.684024
			CHANNELS 6 Xposition Yposition Zposition Zrotation Yrotation Xrotation
			JOINT RightFoot
			{
				OFFSET 0.000000 -0.000003 5.369456
				CHANNELS 6 Xposition Yposition Zposition Zrotation Yrotation Xrotation
				JOINT RightToeBase
				{
					OFFSET 0.000000 1.926342 0.834749
					CHANNELS 6 Xposition Yposition Zposition Zrotation Yrotation Xrotation
					End Site
					{
						OFFSET 0.000000 0.513691 0.000000
					}
				}
			}
		}
	}
}
MOTION
Frames: 9
Frame Time: 0.041667
-0.342638 9.891964 -12.058097 -84.748243 4.254702 3.939199 0.000001 0.000000 -1.053071 1.099883 1.407806 -9.643448 0.000001 0.000001 -2.382877 0.457561 7.192661 1.007105 -0.000002 0.000001 -2.639719 15.972044 -22.742648 13.623196 0.000002 0.256846 -1.990553 26.637224 24.391388 8.468532 0.512620 -0.056020 -2.153826 8.880242 13.424674 -3.712991 1.485730 -0.000000 -0.000003 0.165884 -4.584906 17.356325 3.852900 0.000000 0.000002 -4.581166 11.121209 -18.784137 3.445926 0.000000 -0.000002 19.259709 -38.514689 -25.122535 -0.513669 -0.056020 -2.153826 5.005940 -6.094675 11.947569 -1.485727 -0.000000 -0.000003 -31.564698 71.692739 43.347495 -3.852899 -0.000000 -0.000002 -10.116485 -19.939392 -13.162321 -3.445932 -0.000002 -0.000002 -7.318136 9.571519 -15.559203 1.284228 0.000000 -0.000001 0.283373 -6.954957 -6.226363 0.000000 -0.000003 6.684024 -1.737144 -3.640389 11.964290 0.000001 -0.000002 5.369460 -25.374588 3.859333 -11.744180 0.000001 1.926342 0.834748 0.000001 -0.000002 0.000000 -1.284228 0.000000 -0.000003 0.094668 -7.568750 -10.910082 0.000001 -0.000003 6.684022 6.700557 2.655467 25.365533 0.000002 -0.000003 5.369460 8.460175 2.292644 -21.457664 0.000000 1.926343 0.834749 -0.000006 -0.000000 -0.000001 
-0.338302 9.900332 -12.059244 -84.732151 4.229107 3.931159 0.000002 0.000000 -1.053066 1.110211 1.411596 -9.677526 -0.000000 0.000002 -2.382875 0.462070 7.211670 1.019024 0.000002 0.000001 -2.639725 15.966255 -22.773466 13.597395 -0.000002 0.256846 -1.990561 26.654730 24.467104 8.487415 0.512621 -0.056020 -2.153831 8.895546 13.467842 -3.780505 1.485729 -0.000001 0.000006 0.065174 -4.527072 17.095047 3.852899 -0.000001 -0.000003 -4.525262 11.040658 -18.595656 3.445926 0.000002 -0.000001 19.042349 -38.480353 -24.858458 -0.513666 -0.056021 -2.153827 4.984957 -6.103286 11.945466 -1.485725 -0.000001 0.000001 -31.538156 71.629785 43.226345 -3.852902 -0.000003 -0.000001 -10.193360 -19.856810 -13.052319 -3.445929 0.000001 -0.000003 -7.392586 9.480745 -15.455569 1.284229 0.000000 -0.000001 0.330053 -6.890118 -6.195417 -0.000003 -0.000003 6.684024 -1.760741 -3.655345 11.980828 -0.000002 -0.000002 5.369456 -25.440607 3.825425 -11.765244 -0.000001 1.926342 0.834749 0.000002 -0.000000 0.000002 -1.284228 0.000000 -0.000002 0.245966 -7.519718 -10.833909 0.000000 -0.000004 6.684022 6.746237 2.683449 25.227312 0.000001 -0.000002 5.369457 8.277232 2.247109 -21.433876 0.000002 1.926342 0.834748 -0.000005 -0.000002 0.000001 
-0.333974 9.907455 -12.060611 -84.723251 4.222224 3.908390 -0.000000 0.000000 -1.053067 1.126700 1.397191 -9.663435 0.000000 0.000001 -2.382878 0.465467 7.237630 0.986714 0.000002 0.000001 -2.639726 15.977214 -22.782226 13.609186 -0.000002 0.256846 -1.990563 26.660602 24.503020 8.428888 0.512620 -0.056020 -2.153835 8.837880 13.480753 -3.753736 1.485731 -0.000000 -0.000001 0.070702 -4.478214 16.916072 3.852897 0.000000 -0.000002 -4.546499 10.989709 -18.492011 3.445927 0.000000 -0.000002 18.996059 -38.498839 -24.741717 -0.513667 -0.056020 -2.153832 4.984848 -6.100745 11.965200 -1.485727 -0.000000 -0.000005 -31.490130 71.557617 43.180654 -3.852898 -0.000001 -0.000001 -10.223960 -19.862223 -12.951546 -3.445929 0.000000 0.000002 -7.426370 9.600766 -15.371337 1.284227 -0.000000 0.000002 0.376208 -6.867390 -6.133417 -0.000000 -0.000003 6.684025 -1.773054 -3.619736 11.928980 -0.000001 -0.000002 5.369458 -25.474468 3.806442 -11.733942 0.000001 1.926343 0.834749 -0.000004 0.000001 0.000002 -1.284229 0.000000 0.000001 0.500340 -7.478513 -10.765249 -0.000002 -0.000003 6.684023 6.703334 2.714044 25.114356 -0.000002 -0.000002 5.369461 8.136597 2.231572 -21.425281 -0.000001 1.926343 0.834749 -0.000000 -0.000001 -0.000000 
-0.330086 9.915359 -12.061944 -84.731386 4.184020 3.903268 -0.000000 0.000000 -1.053066 1.111713 1.390533 -9.743205 0.000002 0.000000 -2.382874 0.462898 7.297913 1.021643 0.000000 0.000001 -2.639724 15.998243 -22.816366 13.728973 0.000001 0.256846 -1.990555 26.688556 24.580497 8.299147 0.512621 -0.056020 -2.153831 8.997591 13.471061 -3.660359 1.485730 0.000001 0.000001 -0.078501 -4.438828 16.723708 3.852898 0.000000 -0.000002 -4.557206 10.972108 -18.373550 3.445927 0.000001 -0.000000 18.882106 -38.478656 -24.578412 -0.513665 -0.056020 -2.153831 4.972064 -6.088654 11.976248 -1.485725 -0.000001 0.000002 -31.343697 71.484992 43.093586 -3.852898 -0.000000 0.000000 -10.270885 -19.837608 -12.937696 -3.445930 -0.000003 -0.000005 -7.463349 9.450882 -15.356734 1.284229 0.000000 0.000001 0.369576 -6.807766 -6.089579 0.000002 -0.000003 6.684026 -1.713223 -3.606593 11.864660 -0.000002 -0.000002 5.369458 -25.534041 3.837105 -11.715725 0.000001 1.926343 0.834749 -0.000004 -0.000001 -0.000003 -1.284228 0.000000 0.000001 0.671457 -7.435866 -10.696717 0.000002 -0.000003 6.684024 6.745572 2.793321 24.988211 0.000003 -0.000002 5.369458 7.993738 2.167615 -21.380883 -0.000001 1.926342 0.834749 -0.000000 -0.000001 -0.000002 
-0.326529 9.922585 -12.063673 -84.746522 4.165268 3.895643 0.000001 0.000000 -1.053067 1.115632 1.393202 -9.742395 -0.000000 0.000001 -2.382879 0.462113 7.315845 0.986067 -0.000001 0.000001 -2.639721 16.021937 -22.830227 13.723576 0.000001 0.256847 -1.990555 26.718027 24.619364 8.287038 0.512620 -0.056020 -2.153828 8.990232 13.507172 -3.670428 1.485729 -0.000000 0.000002 -0.097310 -4.430703 16.612355 3.852897 0.000000 0.000003 -4.556939 10.959516 -18.270408 3.445927 0.000001 -0.000001 18.815610 -38.504502 -24.456834 -0.513670 -0.056020 -2.153828 5.035861 -6.085917 11.963256 -1.485729 -0.000001 -0.000000 -31.266031 71.443765 43.234237 -3.852902 -0.000000 -0.000002 -10.209262 -19.892542 -12.997654 -3.445927 -0.000000 0.000001 -7.445798 9.570234 -15.417274 1.284227 0.000000 0.000002 0.401980 -6.759137 -6.081298 0.000000 -0.000003 6.684024 -1.775022 -3.610822 11.918012 -0.000001 -0.000002 5.369460 -25.556498 3.808919 -11.724083 -0.000000 1.926342 0.834749 -0.000006 0.000001 0.000001 -1.284227 0.000000 0.000000 0.907523 -7.403422 -10.641211 0.000001 -0.000004 6.684025 6.699715 2.882529 24.874248 -0.000000 -0.000002 5.369459 7.885736 2.117924 -21.334851 0.000002 1.926342 0.834749 -0.000000 -0.000001 0.000000 
-0.323335 9.929580 -12.065003 -84.779013 4.144448 3.882029 -0.000002 0.000000 -1.053064 1.162004 1.431560 -9.723179 -0.000001 0.000002 -2.382877 0.473472 7.297700 0.908748 -0.000001 0.000001 -2.639720 16.007988 -22.827962 13.728522 -0.000000 0.256846 -1.990558 26.696001 24.584484 8.278668 0.512621 -0.056020 -2.153829 8.959406 13.506699 -3.624534 1.485729 -0.000001 -0.000004 -0.119566 -4.357299 16.581819 3.852900 0.000001 0.000004 -4.541679 10.894731 -18.219352 3.445928 0.000000 -0.000009 18.732678 -38.454699 -24.370989 -0.513667 -0.056020 -2.153829 5.013591 -6.125129 12.031286 -1.485728 0.000000 -0.000000 -31.376199 71.390292 42.812886 -3.852900 -0.000001 -0.000002 -10.328287 -19.849162 -12.923515 -3.445927 -0.000000 -0.000000 -7.401165 9.598449 -15.358208 1.284227 0.000000 0.000003 0.409689 -6.721451 -6.047717 0.000000 -0.000003 6.684024 -1.808466 -3.569726 11.913443 -0.000001 -0.000002 5.369455 -25.496261 3.774021 -11.707994 0.000002 1.926341 0.834750 0.000000 0.000000 0.000002 -1.284229 -0.000000 0.000003 1.179118 -7.358281 -10.597908 -0.000002 -0.000003 6.684021 6.661907 2.942000 24.788869 -0.000000 -0.000002 5.369459 7.748990 2.158902 -21.294785 -0.000001 1.926344 0.834750 -0.000002 0.000001 -0.000003 
-0.320730 9.937531 -12.067398 -84.807187 4.114181 3.869589 0.000001 0.000000 -1.053067 1.195782 1.452722 -9.723445 -0.000001 0.000002 -2.382876 0.484100 7.306250 0.886207 -0.000001 0.000001 -2.639721 16.032225 -22.804723 13.712634 -0.000000 0.256847 -1.990555 26.696168 24.539570 8.255433 0.512619 -0.056021 -2.153826 8.930098 13.512495 -3.604809 1.485727 -0.000000 -0.000003 -0.141646 -4.293778 16.451272 3.852899 0.000000 -0.000000 -4.504162 10.853789 -18.080306 3.445927 0.000001 -0.000000 18.626494 -38.436459 -24.195911 -0.513668 -0.056021 -2.153826 5.016963 -6.131040 12.043818 -1.485726 -0.000001 0.000002 -31.369420 71.354809 42.685308 -3.852901 -0.000001 -0.000001 -10.299709 -19.864540 -12.889340 -3.445929 -0.000001 -0.000001 -7.475752 9.624987 -15.328466 1.284231 0.000000 0.000000 0.345945 -6.688718 -5.998023 -0.000002 -0.000003 6.684023 -1.809475 -3.494738 11.870448 -0.000000 -0.000002 5.369459 -25.396757 3.757017 -11.642250 0.000002 1.926342 0.834749 -0.000003 -0.000001 0.000001 -1.284228 0.000000 -0.000000 1.345838 -7.319669 -10.521056 -0.000000 -0.000003 6.684021 6.661451 3.028280 24.655733 0.000002 -0.000004 5.369460 7.659541 2.152449 -21.227839 0.000003 1.926343 0.834749 -0.000002 0.000001 0.000005 
-0.317016 9.945493 -12.068194 -84.856979 4.097532 3.860338 0.000001 0.000000 -1.053067 1.244648 1.450308 -9.743241 0.000000 0.000001 -2.382876 0.499479 7.335267 0.869703 0.000003 0.000001 -2.639724 16.023694 -22.871969 13.709429 -0.000000 0.256847 -1.990553 26.731649 24.606624 8.310575 0.512622 -0.056021 -2.153833 8.929665 13.515546 -3.593048 1.485729 0.000000 -0.000002 -0.200274 -4.245597 16.294538 3.852900 -0.000001 -0.000006 -4.420383 10.822612 -17.951822 3.445925 0.000000 0.000002 18.508231 -38.413377 -24.030214 -0.513665 -0.056020 -2.153833 5.027629 -6.136245 12.035362 -1.485729 -0.000000 0.000001 -31.236467 71.271289 42.469747 -3.852901 -0.000002 -0.000001 -10.464414 -19.779816 -12.823440 -3.445929 0.000001 -0.000003 -7.458172 9.616152 -15.281609 1.284228 0.000000 0.000002 0.370453 -6.643774 -5.982622 -0.000001 -0.000003 6.684023 -1.792385 -3.476393 11.880934 -0.000000 -0.000002 5.369455 -25.391816 3.749780 -11.646933 0.000001 1.926342 0.834750 0.000003 -0.000003 -0.000003 -1.284225 0.000000 0.000001 1.604914 -7.281479 -10.484998 0.000001 -0.000003 6.684021 6.673045 3.060919 24.606050 -0.000000 -0.000003 5.369461 7.451448 2.155600 -21.213046 -0.000001 1.926343 0.834749 -0.000003 -0.000001 -0.000007 
-0.314782 9.953099 -12.069231 -84.895864 4.083856 3.854704 0.000001 0.000000 -1.053066 1.274201 1.432170 -9.740603 0.000002 0.000001 -2.382877 0.506684 7.388397 0.830197 -0.000000 0.000001 -2.639722 16.036195 -22.904655 13.679271 -0.000000 0.256847 -1.990551 26.757478 24.602177 8.353341 0.512619 -0.056021 -2.153830 8.931774 13.507991 -3.581001 1.485726 -0.000001 0.000004 -0.237360 -4.207489 16.069109 3.852897 -0.000001 -0.000001 -4.338942 10.806392 -17.801739 3.445931 0.000001 -0.000000 18.390383 -38.431248 -23.849711 -0.513666 -0.056020 -2.153831 5.027886 -6.146030 12.020189 -1.485724 -0.000001 0.000001 -31.036055 71.243285 42.491174 -3.852899 -0.000001 -0.000002 -10.467367 -19.815393 -12.838812 -3.445925 -0.000001 -0.000000 -7.566195 9.469560 -15.300180 1.284230 0.000000 0.000000 0.405003 -6.597481 -5.981901 0.000001 -0.000003 6.684026 -1.851047 -3.456506 11.906780 -0.000001 -0.000002 5.369462 -25.335646 3.734820 -11.635818 0.000001 1.926345 0.834750 -0.000004 0.000001 0.000007 -1.284226 0.000000 0.000001 1.790245 -7.253786 -10.444785 -0.000000 -0.000003 6.684022 6.663217 3.114395 24.528620 0.000000 -0.000003 5.369457 7.301402 2.125040 -21.177382 0.000002 1.926342 0.834749 -0.000003 0.000000 -0.000001 
